<?xml version="1.0" encoding="UTF-8" standalone="no"?>
<!-- Created with Inkscape (http://www.inkscape.org/) -->

<svg
   width="210mm"
   height="297mm"
   viewBox="0 0 210 297"
   version="1.1"
   id="svg391"
   inkscape:version="1.2.2 (b0a8486541, 2022-12-01)"
   sodipodi:docname="logo.svg"
   xmlns:inkscape="http://www.inkscape.org/namespaces/inkscape"
   xmlns:sodipodi="http://sodipodi.sourceforge.net/DTD/sodipodi-0.dtd"
   xmlns="http://www.w3.org/2000/svg"
   xmlns:svg="http://www.w3.org/2000/svg">
  <sodipodi:namedview
     id="namedview393"
     pagecolor="#ffffff"
     bordercolor="#000000"
     borderopacity="0.25"
     inkscape:showpageshadow="2"
     inkscape:pageopacity="0.0"
     inkscape:pagecheckerboard="0"
     inkscape:deskcolor="#d1d1d1"
     inkscape:document-units="mm"
     showgrid="false"
     inkscape:zoom="0.69931958"
     inkscape:cx="397.52926"
     inkscape:cy="562.6898"
     inkscape:window-width="1630"
     inkscape:window-height="981"
     inkscape:window-x="0"
     inkscape:window-y="0"
     inkscape:window-maximized="1"
     inkscape:current-layer="layer1" />
  <defs
     id="defs388">
    <linearGradient
       id="gradient_0"
       gradientUnits="userSpaceOnUse"
       x1="654.4668"
       y1="459.99783"
       x2="317.99615"
       y2="342.58893">
      <stop
         offset="0"
         stop-color="#228EEC"
         id="stop4" />
      <stop
         offset="1"
         stop-color="#5DC7FF"
         id="stop6" />
    </linearGradient>
    <linearGradient
       id="gradient_1"
       gradientUnits="userSpaceOnUse"
       x1="707.25067"
       y1="332.82446"
       x2="624.53082"
       y2="221.71043">
      <stop
         offset="0"
         stop-color="#FE7100"
         id="stop25" />
      <stop
         offset="1"
         stop-color="#FE9017"
         id="stop27" />
    </linearGradient>
  </defs>
  <g
     inkscape:label="Calque 1"
     inkscape:groupmode="layer"
     id="layer1">
    <g
       id="g328"
       transform="matrix(0.26458333,0,0,0.26458333,-23.919672,-3.585434)">
      <path
         fill="url(#gradient_0)"
         d="m 309.021,229.976 c 5.823,-0.731 11.829,0.012 17.662,0.329 7.082,0.375 14.17,0.607 21.26,0.697 45.149,0.216 81.882,-10.4 118.289,-37.651 9.008,-6.743 17.769,-14.119 25.769,-22.039 4.398,-4.354 13.391,-15.074 17.53,-17.788 l 1.16,0.275 c 0.705,0.201 1.311,0.448 1.915,0.879 1.3,0.929 29.623,28.014 29.779,28.285 0.593,1.013 1.083,1.222 2.094,1.727 2.499,0.97 23.227,16.062 24.424,17.634 6.822,6.486 24.153,14.074 33.254,17.145 5.649,1.905 11.896,3.35 17.332,5.733 13.767,-12.356 31.155,-19.017 49.737,-18.068 19.493,0.995 36.952,9.62 49.926,24.177 12.548,14.081 18.262,31.725 17.13,50.464 -1.283,21.224 -9.934,34.507 -24.423,49.103 1.979,4.696 0.771,15.707 0.593,21.269 -1.437,44.839 -7.925,91.361 -24.898,133.114 -29.93,73.631 -92.019,137.094 -165.424,167.995 -3.497,1.472 -7.086,2.831 -10.723,3.919 -12.504,-3.978 -24.805,-11.103 -36.025,-17.794 -3.819,-2.278 -7.6,-5.008 -11.555,-7.004 -8.259,-4.967 -30.634,-20.131 -36.064,-27.271 -1.834,-3.276 -15.326,-14.252 -18.957,-17.707 -4.375,-4.163 -8.546,-8.57 -12.727,-12.927 -92.849,-96.75 -89.596,-219.386 -87.058,-344.496 z"
         id="path11"
         style="fill:url(#gradient_0)" />
      <path
         fill="#fefefe"
         d="m 309.021,229.976 c 5.823,-0.731 11.829,0.012 17.662,0.329 7.082,0.375 14.17,0.607 21.26,0.697 45.149,0.216 81.882,-10.4 118.289,-37.651 9.008,-6.743 17.769,-14.119 25.769,-22.039 4.398,-4.354 13.391,-15.074 17.53,-17.788 l 1.16,0.275 c 0.705,0.201 1.311,0.448 1.915,0.879 1.3,0.929 29.623,28.014 29.779,28.285 0.593,1.013 1.083,1.222 2.094,1.727 2.499,0.97 23.227,16.062 24.424,17.634 6.822,6.486 24.153,14.074 33.254,17.145 5.649,1.905 11.896,3.35 17.332,5.733 -8.623,8.404 -14.302,17.346 -18.598,28.593 -7.173,-2.412 -14.3,-4.651 -21.275,-7.622 -6.454,-2.749 -12.617,-6.067 -19.006,-8.94 -6.276,-4.419 -13.156,-8.064 -19.512,-12.401 -7.18,-4.9 -13.758,-10.555 -20.551,-15.956 -3.62,-3.344 -7.331,-6.614 -10.896,-10.015 -32.287,30.736 -60.632,48.819 -104.086,60.156 -6.449,0.811 -12.785,2.44 -19.23,3.311 -14.234,1.924 -29.08,2.513 -43.435,2.276 -0.402,17.208 -0.418,34.423 -0.048,51.632 0.888,65.01 6.882,130.966 40.063,188.48 6.912,11.982 15.114,24.246 24.423,34.501 2.45,4.522 7.831,9.051 11.362,12.868 19.84,21.445 42.654,39.269 67.535,54.494 7.816,4.783 15.894,9.081 23.805,13.695 7.841,-5.119 16.301,-9.389 24.26,-14.355 18.296,-11.338 35.481,-24.377 51.328,-38.943 9.932,-9.149 19.042,-19.593 27.417,-30.176 41.435,-52.364 58.425,-112.224 61.154,-178.239 0.33,-3.698 0.262,-7.439 0.292,-11.15 12.571,-2.111 23,-6.346 33.599,-13.418 l 3.769,-3.115 c 1.979,4.696 0.771,15.707 0.593,21.269 -1.437,44.839 -7.925,91.361 -24.898,133.114 -29.93,73.631 -92.019,137.094 -165.424,167.995 -3.497,1.472 -7.086,2.831 -10.723,3.919 -12.504,-3.978 -24.805,-11.103 -36.025,-17.794 -3.819,-2.278 -7.6,-5.008 -11.555,-7.004 -8.259,-4.967 -30.634,-20.131 -36.064,-27.271 -1.834,-3.276 -15.326,-14.252 -18.957,-17.707 -4.375,-4.163 -8.546,-8.57 -12.727,-12.927 -92.849,-96.75 -89.596,-219.386 -87.058,-344.496 z"
         id="path13" />
      <path
         fill="#1a9df0"
         d="m 711.859,330.878 c 1.979,4.696 0.771,15.707 0.593,21.269 -1.437,44.839 -7.925,91.361 -24.898,133.114 -29.93,73.631 -92.019,137.094 -165.424,167.995 -3.497,1.472 -7.086,2.831 -10.723,3.919 -12.504,-3.978 -24.805,-11.103 -36.025,-17.794 -3.819,-2.278 -7.6,-5.008 -11.555,-7.004 l 1.34,-0.955 c 14.472,8.513 29.104,16.586 44.614,23.069 8.85,-5.268 18.499,-9.291 27.551,-14.258 19.128,-10.714 37.1,-23.372 53.632,-37.772 58.043,-51.493 95.505,-113.607 109.522,-190.248 3.758,-20.55 5.53,-41.37 6.75,-62.202 0.636,-5.304 -0.315,-10.769 0.854,-16.018 z"
         id="path15" />
      <path
         fill="#e4e0e0"
         d="m 708.09,333.993 c -1.169,5.249 -0.218,10.714 -0.854,16.018 l -0.652,-2.082 c -3.399,0.213 -7.054,4.07 -10.218,5.417 -6.84,2.911 -14.854,4.234 -22.167,5.215 0.33,-3.698 0.262,-7.439 0.292,-11.15 12.571,-2.111 23,-6.346 33.599,-13.418 z"
         id="path17" />
      <path
         fill="#3daef7"
         d="m 427.763,605.106 c 12.084,9.476 24.382,18.178 37.404,26.316 l -1.34,0.955 c -8.259,-4.967 -30.634,-20.131 -36.064,-27.271 z"
         id="path19" />
      <path
         fill="#8dc6d9"
         d="m 510.691,153.799 c 0.705,0.201 1.311,0.448 1.915,0.879 1.3,0.929 29.623,28.014 29.779,28.285 -9.272,-5.609 -24.12,-21.041 -31.694,-29.164 z"
         id="path21" />
      <path
         fill="#8dc6d9"
         d="m 544.479,184.69 c 2.499,0.97 23.227,16.062 24.424,17.634 -8.612,-4.543 -17.655,-10.59 -24.424,-17.634 z"
         id="path23" />
      <path
         fill="url(#gradient_1)"
         d="m 619.489,225.202 c 13.767,-12.356 31.155,-19.017 49.737,-18.068 19.493,0.995 36.952,9.62 49.926,24.177 12.548,14.081 18.262,31.725 17.13,50.464 -1.283,21.224 -9.934,34.507 -24.423,49.103 l -3.769,3.115 c -10.599,7.072 -21.028,11.307 -33.599,13.418 -8.032,1.734 -17.43,0.13 -25.461,-1.223 -17.224,-5.466 -31.74,-14.461 -41.612,-29.989 -10.105,-15.949 -13.44,-35.267 -9.269,-53.681 0.946,-2.897 1.86,-5.805 2.742,-8.723 4.296,-11.247 9.975,-20.189 18.598,-28.593 z"
         id="path32"
         style="fill:url(#gradient_1)" />
      <path
         fill="#fefefe"
         d="m 668.922,223.323 c 5.695,0.085 10.917,0.834 16.293,2.821 13.696,5.063 25.466,16.395 31.514,29.649 2.023,4.436 5.683,14.372 3.851,19.187 -0.022,0.111 -0.046,0.222 -0.066,0.333 -0.223,1.202 -0.171,2.071 0.082,3.259 l -1.178,1.354 c 0.47,0.1 0.921,0.314 1.369,0.488 0.176,0.518 0.316,0.969 0.367,1.518 0.834,9.011 -5.434,21.8 -10.9,28.695 -10.514,13.263 -24.181,19.9 -40.783,21.771 -0.403,-3.533 0.656,-9.175 -0.694,-12.31 -0.36,-0.836 -0.76,-0.778 -1.562,-1.005 -1.065,0.208 -1.82,0.383 -2.6,1.183 -1.838,1.884 -0.84,9.059 -0.753,11.831 -13.257,-1.063 -24.929,-5.582 -34.911,-14.542 -11.061,-9.928 -16.439,-22.703 -17.188,-37.364 2.904,0.03 7.082,0.802 9.837,0.002 1.416,-0.411 1.755,-0.754 2.518,-1.977 -0.098,-1.445 -0.036,-1.538 -1.047,-2.688 -3.243,-1.412 -7.744,-0.697 -11.26,-0.564 0.684,-13.828 5.511,-25.471 15.14,-35.468 9.903,-10.283 22.329,-15.765 36.542,-16.068 -0.075,3.939 -0.654,8.642 0.961,12.315 0.469,1.065 0.892,1.529 1.974,1.884 0.465,-0.304 0.514,-0.298 0.934,-0.777 2.501,-2.844 1.646,-9.964 1.56,-13.527 z"
         id="path34"
         style="display:inline" />
      <path
         fill="#fd7403"
         d="m 719.418,279.926 c -3.15,0.176 -6.871,0.731 -9.905,-0.295 -1.337,-0.452 -2.053,-0.944 -2.681,-2.201 l 0.656,-1.14 c 3.567,-2.645 8.978,-1.638 13.092,-1.31 -0.022,0.111 -0.046,0.222 -0.066,0.333 -0.223,1.202 -0.171,2.071 0.082,3.259 z"
         id="path36"
         style="display:inline" />
      <path
         fill="#2b284e"
         d="m 696.529,251.397 0.883,0.267 c 1.016,1.126 1.369,1.419 1.719,2.935 -4.182,5.41 -14.243,13.393 -19.624,18.704 -2.804,2.767 -7.412,8.93 -10.53,10.523 -1.43,0.731 -2.579,0.329 -4.033,-0.125 -0.434,-0.3 -0.866,-0.605 -1.273,-0.941 -1.641,-1.354 -3.119,-3.512 -3.227,-5.697 -0.07,-1.406 0.549,-2.686 1.559,-3.641 1.981,-1.873 4.24,-1.479 6.76,-1.367 9.542,-6.41 18.522,-13.819 27.766,-20.658 z"
         id="path38"
         style="display:inline" />
      <path
         fill="#1080dc"
         d="m 649.03,346.188 c 8.031,1.353 17.429,2.957 25.461,1.223 -0.03,3.711 0.038,7.452 -0.292,11.15 -3.701,0.022 -8.144,-0.006 -11.749,-0.834 -4.331,-0.994 -8.629,-4.921 -10.987,-8.625 -0.448,-0.705 -0.759,-1.227 -1.487,-1.675 -0.773,-0.476 -0.626,-0.434 -0.946,-1.239 z"
         id="path42"
         style="display:inline" />
      <path
         fill="#fefefe"
         d="m 506.071,309.601 c 1.521,-0.121 3.046,-0.175 4.571,-0.161 13.787,0.01 25.651,5.328 35.324,15.103 11.598,11.721 11.953,24.466 11.985,39.859 l 0.012,22.767 c 5.228,0.008 11.636,-0.354 15.732,3.544 2.844,2.708 2.779,6.998 2.952,10.697 0.841,17.924 0.161,36.213 0.158,54.173 -10e-4,8.806 0.926,24.223 -0.455,32.16 -0.368,2.111 -1.304,3.944 -2.798,5.485 -1.611,1.661 -4.05,2.235 -6.267,2.583 -5.937,0.932 -12.378,0.534 -18.382,0.552 l -30.144,0.065 c -13.738,-0.14 -27.492,-0.002 -41.232,-0.004 -6.398,-10e-4 -13.211,0.477 -19.561,-0.225 -2.327,-0.256 -5.077,-0.75 -6.889,-2.313 -2.786,-2.403 -3.826,-5.705 -4.061,-9.257 -0.955,-14.433 -0.109,-29.505 -0.109,-44.002 0.001,-13.124 -0.906,-28.168 0.275,-41.092 0.253,-2.766 0.551,-6.644 2.553,-8.744 3.857,-4.049 9.453,-3.74 14.58,-3.741 0.536,-19.378 -3.521,-41.138 8.236,-58.024 7.95,-11.418 20.198,-17.085 33.52,-19.425 z"
         id="path46"
         style="display:inline" />
      <path
         fill="#1a9df0"
         d="m 480.481,387.054 c 0.024,-10.537 -1.241,-24.779 0.391,-34.816 1.277,-7.851 5.499,-15.09 12.071,-19.65 5.972,-4.143 14.383,-7.026 21.649,-5.644 7.791,0.786 15.663,4.885 20.586,10.989 9.793,12.139 6.246,34.352 6.542,49.486 -10.545,-0.124 -21.107,-0.368 -31.651,-0.236 z"
         id="path48"
         style="display:inline" />
      <path
         fill="#3daef7"
         d="m 480.481,387.054 c 0.024,-10.537 -1.241,-24.779 0.391,-34.816 1.277,-7.851 5.499,-15.09 12.071,-19.65 5.972,-4.143 14.383,-7.026 21.649,-5.644 -1.359,0.009 -3.158,-0.244 -4.265,0.638 -0.757,5.101 -0.304,10.579 -0.28,15.745 0.068,14.438 1.212,29.482 0.022,43.856 z"
         id="path50"
         style="display:inline" />
      <path
         fill="#1080dc"
         d="m 510.076,409.596 c 0.501,-0.036 1.001,-0.064 1.504,-0.064 4.401,0.006 9.383,2.021 12.443,5.209 2.962,3.086 4.471,7.539 4.305,11.784 -0.274,7.033 -4.598,12.095 -9.528,16.615 2.075,9.397 3.498,18.925 4.257,28.518 -3.049,0.336 -6.172,0.246 -9.238,0.274 -4.936,0.076 -9.872,0.045 -14.806,-0.094 0.123,-8.544 2.224,-20.323 4.347,-28.657 -3.266,-3.93 -6.836,-7.885 -8.179,-12.949 -1.12,-4.222 -0.472,-9.092 1.885,-12.794 2.946,-4.628 7.837,-6.796 13.01,-7.842 z"
         id="path52"
         style="display:inline" />
    </g>
  </g>
</svg>
